<svg class="logo" viewBox="-8.0 -238.2 734.7 250.5" xmlns="http://www.w3.org/2000/svg" role="img" aria-label="mëllo"><g fill="currentColor"><path transform="translate(0.00,0) scale(0.14648,-0.14648)" d="M105 0Q88 0 79.5 15.0Q71 30 71 41Q71 74 104 78Q141 83 180.5 96.0Q220 109 220 142V778Q220 840 193.0 863.0Q166 886 131.0 891.0Q96 896 71 903Q61 908 54.0 916.0Q47 924 47 943Q47 955 53.0 971.0Q59 987 71 988Q168 994 246.5 995.5Q325 997 366 997Q374 997 384.0 989.0Q394 981 396 957V845Q414 863 464.0 903.5Q514 944 591.0 979.0Q668 1014 764 1014Q811 1014 859.5 1001.0Q908 988 947.0 953.0Q986 918 1001 850Q1021 872 1072.0 911.0Q1123 950 1199.5 982.0Q1276 1014 1372 1014Q1439 1014 1493.5 995.5Q1548 977 1581.0 923.5Q1614 870 1614 766V175Q1614 127 1638.0 108.0Q1662 89 1694.0 85.5Q1726 82 1751 78Q1768 76 1776.0 69.5Q1784 63 1784 41Q1784 30 1775.5 15.0Q1767 0 1750 0H1323Q1306 0 1297.5 15.0Q1289 30 1289 41Q1289 57 1295.0 67.0Q1301 77 1320 78Q1352 80 1389.0 97.0Q1426 114 1426 142V795Q1426 812 1418.5 836.0Q1411 860 1383.5 878.0Q1356 896 1297 896Q1203 896 1128.5 852.5Q1054 809 1010 771Q1010 764 1010.0 756.0Q1010 748 1010 741V175Q1010 127 1031.5 108.0Q1053 89 1082.5 85.5Q1112 82 1137 78Q1154 76 1162.0 69.5Q1170 63 1170 41Q1170 30 1161.5 15.0Q1153 0 1136 0H719Q702 0 693.5 15.0Q685 30 685 41Q685 57 691.0 67.0Q697 77 716 78Q748 80 785.0 97.0Q822 114 822 142V795Q822 812 814.5 836.0Q807 860 779.5 878.0Q752 896 693 896Q631 896 575.5 875.5Q520 855 477.0 826.0Q434 797 406 771V175Q406 111 443.5 96.5Q481 82 518 78Q539 76 546.5 70.0Q554 64 554 41Q554 30 545.5 15.0Q537 0 520 0Z"/><path transform="translate(258.26,0) scale(0.14648,-0.14648)" d="M532 -29Q303 -29 186.0 110.5Q69 250 69 500Q69 667 132.0 781.5Q195 896 298.0 955.0Q401 1014 520 1014Q646 1014 725.5 970.5Q805 927 848.5 849.5Q892 772 910 669Q917 631 919.5 589.0Q922 547 922 503H284Q285 345 326.0 251.0Q367 157 429.5 116.0Q492 75 558 75Q634 75 697.0 109.5Q760 144 792 208Q795 214 798.0 220.0Q801 226 811 224L861 201Q872 197 872 189Q872 185 870.0 180.5Q868 176 866 173Q822 85 741.0 28.0Q660 -29 532 -29ZM286 589 700 595Q700 769 648.0 843.5Q596 918 519 918Q448 918 398.0 895.0Q348 872 320.0 801.5Q292 731 286 589Z"/><path transform="translate(397.28,0) scale(0.14648,-0.14648)" d="M73 0Q57 0 46.5 12.5Q36 25 36 41Q36 74 69 78Q106 82 146.0 95.5Q186 109 186 142L187 1339Q187 1401 158.0 1424.0Q129 1447 91.0 1452.0Q53 1457 26 1464Q16 1469 9.0 1477.0Q2 1485 2 1504Q2 1516 8.0 1532.0Q14 1548 26 1549Q126 1555 212.0 1556.0Q298 1557 341 1558Q349 1558 359.0 1550.0Q369 1542 371 1518V175Q371 132 391.5 112.5Q412 93 440.5 87.0Q469 81 493 78Q514 76 521.5 68.5Q529 61 529 44Q529 26 518.5 13.0Q508 0 490 0Z"/><path transform="translate(477.12,0) scale(0.14648,-0.14648)" d="M73 0Q57 0 46.5 12.5Q36 25 36 41Q36 74 69 78Q106 82 146.0 95.5Q186 109 186 142L187 1339Q187 1401 158.0 1424.0Q129 1447 91.0 1452.0Q53 1457 26 1464Q16 1469 9.0 1477.0Q2 1485 2 1504Q2 1516 8.0 1532.0Q14 1548 26 1549Q126 1555 212.0 1556.0Q298 1557 341 1558Q349 1558 359.0 1550.0Q369 1542 371 1518V175Q371 132 391.5 112.5Q412 93 440.5 87.0Q469 81 493 78Q514 76 521.5 68.5Q529 61 529 44Q529 26 518.5 13.0Q508 0 490 0Z"/><path transform="translate(556.96,0) scale(0.14648,-0.14648)" d="M77 492Q77 636 134.5 754.5Q192 873 299.5 943.5Q407 1014 557 1014Q707 1014 812.0 943.5Q917 873 972.0 754.5Q1027 636 1027 492Q1027 348 970.5 230.0Q914 112 807.0 41.5Q700 -29 550 -29Q400 -29 294.5 41.5Q189 112 133.0 230.0Q77 348 77 492ZM292 492Q292 291 347.0 178.5Q402 66 553 66Q704 66 757.0 178.5Q810 291 810 492Q810 693 755.0 805.5Q700 918 549 918Q398 918 345.0 805.0Q292 692 292 492Z"/><circle cx="307.84" cy="-188.54" r="22"/><circle cx="353.84" cy="-188.54" r="22"/></g></svg>